<svg height="800" width="800" version="1.1" id="Layer_1" xmlns="http://www.w3.org/2000/svg" viewBox="0 0 512.016 512.016" xml:space="preserve"><path style="fill:#ffce54" d="M17.25 493.132c3.625-10.188 8.344-23.141 13.625-36.563 19.875-50.642 30.407-65.782 34.938-70.298 6.781-6.797 15.188-11.375 24.313-13.266l3.156-.656 35.344-35.75 42.312 48.875-32.906 31.516-.688 3.235c-1.875 9.125-6.469 17.531-13.25 24.344-4.531 4.5-19.656 15.062-70.282 34.923-13.436 5.265-26.406 10.015-36.562 13.64z"/><path style="fill:#f6bb42" d="M129.158 320.943 87.97 362.584c-10.719 2.219-21.126 7.609-29.688 16.172C36.407 400.63 0 510.366 0 510.366s109.72-36.391 131.626-58.282c8.531-8.547 13.938-18.969 16.156-29.703l37.812-36.22-56.436-65.218zm3.906 86.062-4.781 4.594-1.344 6.484c-1.469 7.079-5.062 13.642-10.375 18.954-1.75 1.75-13.219 11.578-66.563 32.517a1148.888 1148.888 0 0 1-14.906 5.703 995.301 995.301 0 0 1 5.719-14.876c20.938-53.36 30.75-64.829 32.531-66.579 5.313-5.328 11.876-8.906 18.938-10.359l6.312-1.312 4.531-4.578 24.969-25.281 28.156 32.516-23.187 22.217z"/><path style="fill:#da4453" d="M199.909 423.397a452.13 452.13 0 0 0 17.875-8.876l121.501-86.781a664.598 664.598 0 0 0 14.719-14.203c2.781-2.812 5.563-5.625 8.282-8.469-.469 55.359-25.845 115.923-74.032 164.127-16.062 16.047-33.469 29.562-51.625 40.484-.125.078-.845.5-.845.5-4.031 2.188-9.188 1.578-12.594-1.828a10.548 10.548 0 0 1-2.438-3.875s-.375-1.109-.469-1.594l-21.938-78.767c.533-.234 1.033-.484 1.564-.718zM207.534 150.269a711.587 711.587 0 0 0-8.469 8.312 596.797 596.797 0 0 0-14.188 14.703c-21.281 3-86.812 121.517-86.812 121.517a487.923 487.923 0 0 0-8.875 17.876c-.25.516-.469 1.031-.719 1.547L9.688 292.285c-.469-.094-1.594-.469-1.594-.469a10.504 10.504 0 0 1-3.875-2.453c-3.406-3.406-4-8.547-1.812-12.594 0 0 .406-.703.5-.828 10.906-18.157 24.406-35.563 40.469-51.625 48.219-48.219 108.782-73.594 164.158-74.047z"/><path style="fill:#e6e9ed" d="M197.003 151.05c-60.408 60.422-103.97 129.438-128.252 196.299-1.281 3.75-.469 8.031 2.531 11.016l82.907 82.938c3 2.969 7.281 3.797 11.031 2.516 66.876-24.282 135.877-67.829 196.285-128.251 93.876-93.845 146.563-207.081 150.501-303.645.125-2.875-.906-6.047-3.094-8.25-2.219-2.203-5.375-3.234-8.281-3.109-96.562 3.937-209.783 56.641-303.628 150.486z"/><path style="fill:#434a54" d="M317.598 237.535c-11.375 0-22.062-4.438-30.094-12.469-8.031-8.047-12.469-18.735-12.469-30.11s4.438-22.063 12.469-30.11c8.031-8.031 18.75-12.469 30.094-12.469 11.375 0 22.062 4.438 30.125 12.469 16.595 16.61 16.595 43.625 0 60.22-8.062 8.031-18.75 12.469-30.094 12.469h-.031zM227.284 327.849c-11.375 0-22.062-4.422-30.094-12.469-8.032-8.031-12.47-18.735-12.47-30.095 0-11.375 4.438-22.078 12.47-30.125 8.031-8.031 18.719-12.469 30.094-12.469 11.376 0 22.063 4.438 30.126 12.469 16.594 16.61 16.594 43.626 0 60.22-8.063 8.047-18.75 12.469-30.126 12.469z"/><path style="fill:#ccd1d9" d="M355.254 157.331c-10.062-10.047-23.438-15.594-37.656-15.594-14.188 0-27.562 5.547-37.625 15.594-10.031 10.047-15.594 23.422-15.594 37.625 0 14.219 5.562 27.579 15.594 37.641 10.062 10.046 23.438 15.578 37.625 15.578 14.219 0 27.594-5.531 37.656-15.578 20.751-20.75 20.751-54.515 0-75.266zm-15.062 60.204a31.875 31.875 0 0 1-22.594 9.359c-8.156 0-16.344-3.125-22.562-9.359-12.469-12.469-12.469-32.688 0-45.157 6.219-6.234 14.406-9.344 22.562-9.344 8.188 0 16.344 3.109 22.594 9.344 12.468 12.469 12.468 32.688 0 45.157zM227.284 232.067c-14.219 0-27.562 5.531-37.626 15.578-10.062 10.046-15.594 23.422-15.594 37.641 0 14.204 5.531 27.563 15.594 37.626 10.063 10.047 23.407 15.594 37.626 15.594 14.22 0 27.595-5.547 37.658-15.594 20.75-20.75 20.75-54.517 0-75.267-10.063-10.047-23.438-15.578-37.658-15.578zm22.595 75.782c-6.25 6.25-14.407 9.359-22.595 9.359-8.156 0-16.344-3.109-22.562-9.359-12.47-12.47-12.47-32.688 0-45.157 6.219-6.235 14.406-9.344 22.562-9.344 8.188 0 16.345 3.109 22.595 9.344 12.469 12.468 12.469 32.687 0 45.157z"/><path style="fill:#da4453" d="M479.225 145.816 366.755 33.361C412.568 13.439 458.225 2.298 500.631.564c2.906-.125 6.062.906 8.281 3.109 2.188 2.203 3.219 5.375 3.094 8.25-1.719 42.438-12.875 88.08-32.781 133.893z"/></svg>